<?xml version="1.0" encoding="utf-8"?>
<!-- Generator: Adobe Illustrator 21.1.0, SVG Export Plug-In . SVG Version: 6.00 Build 0)  -->
<svg version="1.1" id="圖層_1" xmlns="http://www.w3.org/2000/svg" xmlns:xlink="http://www.w3.org/1999/xlink" x="0px" y="0px"
	 viewBox="0 0 200 200" style="enable-background:new 0 0 200 200;" xml:space="preserve">
<style type="text/css">
	.st0{display:none;}
	.st1{display:inline;fill:#188BAA;}
	.st2{display:inline;fill:none;stroke:#FFFFFF;stroke-width:3;stroke-linecap:round;stroke-linejoin:round;stroke-miterlimit:10;}
	.st3{display:inline;fill:#FFFFFF;}
	.st4{display:inline;fill:none;stroke:#FFFFFF;stroke-linecap:round;stroke-linejoin:round;stroke-miterlimit:10;}
	.st5{display:inline;}
	.st6{fill:none;stroke:#FFFFFF;stroke-width:2;stroke-linecap:round;stroke-linejoin:round;stroke-miterlimit:10;}
	.st7{display:inline;fill:none;stroke:#FFFFFF;stroke-width:3;stroke-miterlimit:10;}
	.st8{fill:none;stroke:#FFFFFF;stroke-width:3;stroke-linecap:round;stroke-linejoin:round;stroke-miterlimit:10;}
	.st9{fill:none;stroke:#FFFFFF;stroke-width:3;stroke-miterlimit:10;}
	.st10{fill:none;stroke:#FFFFFF;stroke-width:3;stroke-linecap:round;stroke-miterlimit:10;}
	.st11{display:inline;fill:none;stroke:#FFFFFF;stroke-width:2;stroke-linecap:round;stroke-linejoin:round;stroke-miterlimit:10;}
	.st12{display:inline;fill:none;stroke:#FFFFFF;stroke-width:6;stroke-linecap:round;stroke-linejoin:round;stroke-miterlimit:10;}
	
		.st13{display:inline;opacity:0.69;fill:none;stroke:#FFFFFF;stroke-width:7;stroke-linecap:round;stroke-linejoin:round;stroke-miterlimit:10;enable-background:new    ;}
	.st14{fill:#FFFFFF;}
	
		.st15{display:inline;fill:none;stroke:#FFFFFF;stroke-width:0.75;stroke-linecap:round;stroke-linejoin:round;stroke-miterlimit:10;}
	.st16{fill:none;stroke:#FFFFFF;stroke-width:0.75;stroke-linecap:round;stroke-linejoin:round;stroke-miterlimit:10;}
	.st17{fill:none;stroke:#0D7996;stroke-width:3;stroke-linecap:round;stroke-linejoin:round;stroke-miterlimit:10;}
	.st18{fill:#0D7996;}
	.st19{fill:none;stroke:#0D7996;stroke-linecap:round;stroke-linejoin:round;stroke-miterlimit:10;}
</style>
<g id="圖層_2" class="st0">
	<rect x="-2.7" y="-16" class="st1" width="207.3" height="239.3"/>
</g>
<g id="圖層_1_1_" class="st0">
	<path class="st2" d="M43.8,134.6c0-4.5-1.4-10.1-1.4-10.1c-2.6,2.7-5,5.8-5.3,8.6"/>
	<path class="st2" d="M24.1,136.6"/>
	<path class="st2" d="M31.6,134.1c3.6-0.8,9.4-1.2,16,2.1c9.5,4.7,16.2,14.2,15.2,27.1C62,176.1,58.9,191.6,63,203H9
		c-2.4-18.1,2.9-45.2,5.9-53.5c2.7-7.7,7-11.3,8.7-12.4"/>
	<path class="st2" d="M31.6,134.1"/>
	<path class="st2" d="M29.2,134.7"/>
	<path class="st2" d="M23.6,137c-0.9-3.4,1.3-10.3,1.3-10.3s4.9,3.8,6.7,7.2"/>
	<path class="st3" d="M41.7,144.7c-0.7-0.2-3-1.1-1.4-1.9c1.7-0.7,2.4-0.6,2.6-0.6c0.3,0,0.8,0.7-0.1,2.1L41.7,144.7z"/>
	<path class="st4" d="M42.1,143.8l0.3,2.3c0,0-0.3,1-1.5,1.2"/>
	<path class="st4" d="M42.4,145.9c0,0,0.6,0.7,2,0.7"/>
	<circle class="st3" cx="34.8" cy="144.3" r="1.2"/>
	<circle class="st3" cx="46.9" cy="142.2" r="1"/>
	<path class="st2" d="M71.8,203.4c-2.4-18.1,2.3-38.2,5.2-46.5c3.3-9.4,8.6-12.6,8.6-12.6c-0.4-4.4,5.4-12.3,5.4-12.3
		c0.8,3.2,2.5,6.6,3.2,9.8c0,0,6.8-2.6,15.6,1.8c9.5,4.7,16.2,14.2,15.2,27.1c-0.9,12.9-4.1,26.1,0.1,37.5L71.8,203.4z"/>
	<path class="st2" d="M101,140.6l6,0.7v-9.3C107,131.9,101,134.7,101,140.6z"/>
	<path class="st3" d="M103.7,152.2c-0.7-0.2-2.8-1.1-1-1.9c1.7-0.7,2.4-0.6,2.6-0.6c0.3,0,1,0.6,0,2.1L103.7,152.2z"/>
	<path class="st4" d="M104.3,151.6l0.3,2.3c0,0-0.3,1.4-2,1.7"/>
	<path class="st4" d="M104.7,153.9c0,0,0.3,0.8,2.3,0.8"/>
	<circle class="st3" cx="97" cy="151.6" r="1.2"/>
	<circle class="st3" cx="109.1" cy="149.6" r="1"/>
	<path class="st2" d="M198.3,202.1c2.4-18.1-2.3-38.2-5.2-46.5c-3.3-9.4-9.5-13-9.5-13c1-5-2.7-11.5-2.7-11.5
		c-1.1,2.2-4.2,5.9-5.2,9.8c0,0-6-3.3-15.5,1.4c-9.5,4.7-16.2,14.2-15.2,27.1c0.9,12.9,4.1,26.1-0.1,37.5L198.3,202.1z"/>
	<path class="st2" d="M169.2,139.3l-7.1,1.9l-1-9.3C161.1,131.9,168.8,136.6,169.2,139.3z"/>
	<path class="st3" d="M166.5,150.8c0.7-0.2,2.8-1.1,1-1.9c-1.7-0.7-2.4-0.6-2.6-0.6c-0.3,0-1,0.6,0,2.1L166.5,150.8z"/>
	<path class="st4" d="M165.8,150l-0.3,2.3c0,0,0.5,1,2.5,1.4"/>
	<path class="st4" d="M165.5,152.3c0,0-0.7,0.8-2.3,0.7"/>
	<circle class="st3" cx="173.2" cy="150.4" r="1.2"/>
	<circle class="st3" cx="161.1" cy="148.3" r="1"/>
	<g class="st5">
		<path class="st6" d="M89.1,54.8c-1.2-2-1.8-4.4-1.8-6.9c0-7.7,6.2-13.9,13.9-13.9S115,40.2,115,47.9c0,2.5-0.7,4.9-1.9,6.9"/>
		<path class="st6" d="M113.4,54.2c-3.2,4.9-5.9,15.1-5.9,15.1H94.3c0,0-3.5-12.1-5.5-15.1"/>
	</g>
	<path class="st7" d="M70.8,92.2"/>
	<path class="st2" d="M124,96.1"/>
	<g class="st5">
		<path class="st8" d="M102.3,97.4c-7.2,0-14-1-20.4-2.8"/>
		<path class="st8" d="M124,94.1c-3.1,1-6.4,1.7-9.8,2.3"/>
		<path class="st8" d="M70.8,90.2c-16.6-8.3-27.5-22.9-27.5-39.5C43.2,24.9,69.7,4,102.3,4s59.1,20.9,59.1,46.7
			c0,16.2-10.4,30.5-26.3,38.8"/>
		<path class="st9" d="M70.8,90.1c-0.1,7.2-1.4,21.3-7.1,25.1S78.9,111,82,94.5"/>
		<path class="st10" d="M102.3,97.4c0.7,7,0.7,16.3-2.3,18.8s12.2-9.7,13.1-19.6"/>
		<path class="st8" d="M123.7,94.2c0.9,9.2,7.9,17.3,13.3,19.9c0,0-5.1-14.1-1.9-24.6"/>
	</g>
	<line class="st2" x1="95.5" y1="74.1" x2="106.8" y2="74.1"/>
	<line class="st2" x1="98" y1="80.2" x2="104.3" y2="80.2"/>
	<line class="st2" x1="73.4" y1="47.9" x2="83.1" y2="47.9"/>
	<line class="st2" x1="81.7" y1="28.2" x2="88.4" y2="35"/>
	<line class="st2" x1="101.3" y1="20.2" x2="101.2" y2="29.8"/>
	<line class="st2" x1="120.9" y1="28.5" x2="114" y2="35.2"/>
	<line class="st2" x1="128.8" y1="48.5" x2="119.2" y2="48.3"/>
	<path class="st3" d="M101,49.3c-0.6-0.3-1.8-1.4-0.6-1.8c1.6-0.5,2.1-0.1,2.3,0c0.7,0.3,0.8,0.8-0.6,1.9L101,49.3z"/>
	<path class="st4" d="M101.6,48.4l-0.1,2c0,0-0.5,1.1-2,1.1"/>
	<path class="st4" d="M101.6,50.5c0,0,0.2,0.7,1.8,1.1"/>
	<ellipse transform="matrix(0.2073 -0.9783 0.9783 0.2073 28.9463 131.0829)" class="st3" cx="95.4" cy="47.7" rx="1.1" ry="1.1"/>
	<ellipse transform="matrix(0.2073 -0.9783 0.9783 0.2073 38.3774 142.7334)" class="st3" cx="107.3" cy="47.7" rx="1.1" ry="1.1"/>
</g>
<g id="圖層_3" class="st0">
	<path class="st2" d="M81.8,195.1c-0.7,4.6-1.6,8.6-2.8,12l90.6-4.3c6.5-34-1.1-90.4-6.2-104.7c-5.7-16-14.7-21.1-14.7-21.1
		c1.2-7.4-3.2-14-3.2-14c-4.5,4.2-5.9,6.5-7.4,9.6c0,0-14.4-5.3-30.6,2.8s-27.6,24.3-25.9,46.2c0.4,5.9,0.9,12.7,1.4,21"/>
	<path class="st2" d="M124.7,70l-10.2,1.2l0.8-11.9C115.3,59.3,123.8,63,124.7,70z"/>
	<path class="st3" d="M118,90c1.2-0.3,4.8-2,1.8-3.2s-4-0.9-4.4-0.9c-0.5,0.1-1.7,1-0.1,3.7L118,90z"/>
	<path class="st4" d="M116.8,88.6l-0.6,3.9c0,0,0.7,1.8,4.2,2.4"/>
	<path class="st4" d="M116.2,92.5c0,0-1.1,1.3-3.9,1.2"/>
	<circle class="st3" cx="129.3" cy="89.2" r="2.1"/>
	<circle class="st3" cx="108.7" cy="85.7" r="1.8"/>
	<circle class="st11" cx="107.5" cy="83.9" r="6"/>
	<circle class="st11" cx="128.2" cy="87.5" r="6"/>
	<path class="st11" d="M113.5,83.9c3-1.1,7.5-0.4,8.9,1.8"/>
	<path class="st11" d="M134.2,87.5c2.5,1,4.5,0.9,6-0.4S154.8,76,154.8,76s5.5-0.1,5.8,5.4"/>
	<line class="st11" x1="84.2" y1="192" x2="119.2" y2="175.9"/>
	<line class="st4" x1="83.5" y1="194.4" x2="118.5" y2="178.3"/>
	<line class="st4" x1="83.5" y1="195.1" x2="118.5" y2="179"/>
	<line class="st4" x1="83.5" y1="197.6" x2="118.5" y2="181.5"/>
	<line class="st4" x1="83.5" y1="199.2" x2="118.5" y2="183.2"/>
	<path class="st11" d="M30.8,163c9.2-1.5,18.4-11.8,28.5,4.3c0,0,9.8-5.6,16.2,5.9s8.6,17.1,8.8,18.8"/>
	<path class="st4" d="M30,166.1c9.2-1.5,18.4-11.8,28.5,4.3c0,0,9.8-5.6,16.2,5.9c6.4,11.5,8.6,17.1,8.8,18.8"/>
	<path class="st4" d="M30,168.6c9.2-1.5,18.4-11.8,28.5,4.3c0,0,9.8-5.6,16.2,5.9c6.4,11.5,8.6,17.1,8.8,18.8"/>
	<path class="st4" d="M30,170.3c9.2-1.5,18.4-11.8,28.5,4.3c0,0,9.8-5.6,16.2,5.9c6.4,11.5,8.6,17.1,8.8,18.8"/>
	<path class="st11" d="M119.2,175.9c-0.2-1.7-2.4-7.3-8.8-18.8s-16.2-5.9-16.2-5.9c-9-13.9-23.6-6.6-28.5-4.3L30.8,163"/>
	<line class="st11" x1="59.2" y1="167.3" x2="94.3" y2="151.2"/>
	
		<image style="display:inline;overflow:visible;enable-background:new    ;" width="35" height="35" xlink:href="97F6513D4F09A00A.png"  transform="matrix(1 0 0 1 88 406)">
	</image>
</g>
<g id="圖層_4" class="st0">
	<path class="st2" d="M50.3,117.2c0.6-5.6-0.3-13-0.3-13c-3.2,2.6-8.1,7.1-8.2,11.2"/>
	<path class="st2" d="M26.2,119.3"/>
	<path class="st2" d="M35.3,116.5c4.6-1,11.5-1.6,20,2.7c12.1,6.1,20.6,18.1,19.4,34.5s-5.2,36.2,0.1,50.7H6.1
		c-3-23,3.7-57.6,7.5-68.3c3.5-9.9,9.9-15,12-16.5"/>
	<path class="st2" d="M35.3,116.5"/>
	<path class="st2" d="M30.3,117.8"/>
	<path class="st2" d="M25.6,119.6c-0.8-7.3,4.1-14.6,4.1-14.6s4.4,7.3,5.7,11.5"/>
	<path class="st3" d="M47.7,130.2c-0.9-0.2-3.9-1.5-1.7-2.4c2.2-0.9,2.9-0.7,3.3-0.7c0.3,0,1,0.8-0.2,2.8L47.7,130.2z"/>
	<path class="st4" d="M48.2,129l0.4,2.9c0,0-0.3,1.3-1.8,1.6"/>
	<path class="st4" d="M48.7,131.5c0,0,0.8,0.8,2.6,0.9"/>
	<path class="st2" d="M152.7,176.2c-1.4,12.4-2.6,23.7,1.4,34.7l-67.9-6.1c-3-23,2.8-48.7,6.6-59.3c4.2-11.9,11.8-16.3,11.8-16.3
		c-0.5-4.7,4-12.5,4-12.5c1.7,3.6,4.5,6,5.7,10.3c0,0,8.1-4.3,20.2,1.8c10.8,5.4,18.8,15.3,19.4,29.1"/>
	<path class="st2" d="M123.3,124.8l7.5,2.3l-0.9-12.1C129.9,115,123.3,120.5,123.3,124.8z"/>
	<path class="st3" d="M126.6,139.7c-0.9-0.2-3.6-1.5-1.4-2.4s2.9-0.7,3.3-0.7c0.3,0,1.3,0.8,0.1,2.7L126.6,139.7z"/>
	<path class="st4" d="M127.5,139l0.4,2.9c0,0-0.4,1.7-2.6,2.2"/>
	<path class="st4" d="M128,141.9c0,0,0.4,1,2.8,1.1"/>
	<path class="st11" d="M118.9,22.9c-0.8-7.1-0.9-25.3,17.7-10s30.1,36.6,29.2,57.9l-11.3,6.4C154.5,77.2,123.8,66.8,118.9,22.9z"/>
	<path class="st11" d="M129.6,55.5c0,0-2.8,10.5-3.4,13.8s0.6,7.1,5.9,10.5c5.4,3.4,19.9,11.6,19.9,11.6s-12.2-15.3-9.7-21.5"/>
	<path class="st11" d="M159.3,38.8c0,0,10.4,3.1,13.6,4.3c3.2,1.2,5.8,4.2,5.9,10.5s-0.4,23-0.4,23s-6.8-18.3-13.4-19.4"/>
	<ellipse transform="matrix(0.8708 -0.4916 0.4916 0.8708 0.4935 72.2784)" class="st12" cx="137.8" cy="35.2" rx="6.6" ry="6.6"/>
	<line class="st13" x1="162.3" y1="87.9" x2="174" y2="108.6"/>
	<line class="st13" x1="170.2" y1="83.5" x2="181.9" y2="104.2"/>
	<line class="st13" x1="163.3" y1="109.4" x2="164.8" y2="112.1"/>
	<line class="st13" x1="188" y1="95.5" x2="189.4" y2="98.2"/>
	<g class="st5">
		
			<rect x="126.6" y="174.3" transform="matrix(0.847 -0.5316 0.5316 0.847 -72.6948 102.8739)" class="st6" width="31.4" height="6.9"/>
		
			<rect x="138.1" y="164.5" transform="matrix(0.847 -0.5316 0.5316 0.847 -66.4722 101.1669)" class="st6" width="8.8" height="3.1"/>
		<polygon class="st6" points="158.5,155.4 132,172.1 127.2,183.6 153.7,166.9 		"/>
		<polygon class="st6" points="158.5,155.2 153.7,166.4 157.4,172.3 162.2,161 		"/>
		<line class="st6" x1="158" y1="163.7" x2="175.4" y2="149"/>
		<circle class="st14" cx="175.4" cy="149" r="3.3"/>
		<path class="st6" d="M172.2,144.1c1-0.7,2.1-1,3.3-1c3.3,0,5.9,2.6,5.9,5.9c0,0.4,0,0.8-0.1,1.2"/>
		<path class="st6" d="M169.6,141.3c1.6-1.3,3.7-2.1,6-2.1c5.3,0,9.7,4.3,9.7,9.7c0,1-0.1,2-0.4,2.8"/>
		<ellipse transform="matrix(0.847 -0.5316 0.5316 0.847 -65.6569 100.1743)" class="st14" cx="141.2" cy="164.1" rx="5" ry="2.2"/>
		
			<ellipse transform="matrix(0.847 -0.5316 0.5316 0.847 -67.2127 101.9765)" class="st14" cx="143.5" cy="167.8" rx="5.3" ry="2.3"/>
	</g>
	
		<ellipse transform="matrix(0.1852 -0.9827 0.9827 0.1852 -39.0792 228.3152)" class="st11" cx="118.1" cy="137.7" rx="5.1" ry="5.1"/>
	<line class="st11" x1="117" y1="132.7" x2="121.9" y2="141.2"/>
	<line class="st15" x1="115.4" y1="134.3" x2="119.8" y2="141.8"/>
	
		<ellipse transform="matrix(0.1852 -0.9827 0.9827 0.1852 -21.4459 242.7074)" class="st11" cx="135.6" cy="134.3" rx="5.1" ry="5.1"/>
	<line class="st11" x1="134.4" y1="129.4" x2="139.4" y2="137.8"/>
	<line class="st15" x1="132.8" y1="131" x2="137.3" y2="138.5"/>
	<path class="st11" d="M113.4,139.7c-5.1,2-13.4-0.1-15.6-3.4"/>
	<g class="st5">
		
			<ellipse transform="matrix(0.1852 -0.9827 0.9827 0.1852 -94.6951 143.4725)" class="st6" cx="39.2" cy="128.8" rx="5.1" ry="5.1"/>
		<line class="st6" x1="38" y1="123.9" x2="42.9" y2="132.3"/>
		<line class="st16" x1="36.4" y1="125.5" x2="40.9" y2="133"/>
		
			<ellipse transform="matrix(0.1852 -0.9827 0.9827 0.1852 -77.0618 157.8647)" class="st6" cx="56.7" cy="125.4" rx="5.1" ry="5.1"/>
		<line class="st6" x1="55.5" y1="120.6" x2="60.5" y2="128.9"/>
		<line class="st16" x1="53.9" y1="122.1" x2="58.3" y2="129.7"/>
		<path class="st6" d="M34.4,130.8c-5.1,2-13.4-0.1-15.6-3.4"/>
	</g>
	<path class="st11" d="M123.2,136.5"/>
</g>
<g id="圖層_5">
	<path class="st17" d="M126.7,30.1C127.1,19.7,126,8,126,8c-7.3,2.6-17.1,9-20,19.3"/>
	<path class="st17" d="M66.8,37.4"/>
	<path class="st17" d="M89.4,29.4c9.2-2,25.6-4,42.7,4.7c24.6,12.3,41.8,36.9,39.4,70s-9.3,82.9,1.6,112.3H33.5
		c-6.2-46.6,6.2-126.2,13.9-148c4.8-15.3,12.2-24.4,17.9-30"/>
	<path class="st17" d="M89.4,29.4"/>
	<path class="st17" d="M83.2,30.9"/>
	<path class="st17" d="M65.3,38.4C64.3,24,73,11.3,73,11.3s11.7,10.2,16.4,18.1"/>
	<path class="st18" d="M116.8,56.3c-1.9-0.4-8-3-3.4-4.9c4.4-1.9,6-1.4,6.7-1.3c0.7,0.1,2,1.6-0.3,5.7L116.8,56.3z"/>
	<path class="st19" d="M117.8,53.8l0.9,5.9c0,0-0.7,2.6-3.7,3.1"/>
	<path class="st19" d="M118.5,59c0,0,1.6,1.6,5.3,1.7"/>
	<circle class="st18" cx="98.9" cy="55" r="3.1"/>
	<circle class="st18" cx="130.3" cy="49.7" r="2.7"/>
	<path class="st17" d="M54.9,154.1c9.7-6.9,45.4-28.3,48.9-38.5c3.6-10.2,13.3-18,14.5,0c1.1,18-29.3,42.8-40.6,48.8"/>
	<g>
		<g>
			<path class="st18" d="M140,85.7c-1.6-2.9-3.7-5.2-6.2-7c-0.4,2-1.6,3.7-3.3,4.7c-0.7,0.4-1.4,0.6-2.1,0.7c-0.3,1.6-1.3,3-2.9,4
				c-2.9,1.6-6.6,0.6-8.2-2.3c-0.3-0.4-0.4-0.9-0.6-1.3c-0.4,0.3-0.9,0.6-1.3,0.9c-4.4,2.6-10.2,0.9-12.6-3.6c0,0,0,0,0-0.1
				c-6.3,7.2-7.9,17.7-2.9,26.5c1.3,2.3,3,4.4,4.9,6c3.7-10,13.2-17.2,14.3,0.6c0.1,1.7,0,3.4-0.4,5.2c4.3,0.3,8.6-0.7,12.4-2.9
				C142.3,110.8,146.3,96.8,140,85.7z M111.8,103.8c-0.3,1-1.6,2-2.6,2.4c-1.9,1-3.3,1.9-4.4,0c-0.4-0.9-1-2.3-0.9-3.1
				c0.1-1.1,0.3-3.1,1.4-3.7c1-0.6,2.6,0.3,3.4,0.6c1,0.3,1.9,0.9,2.4,1.9C111.8,102.6,112.1,102.8,111.8,103.8z M127.8,97.5
				c-0.3,1-1.6,2-2.6,2.4c-1.9,1-3.3,1.9-4.4,0c-0.4-0.9-1-2.3-0.9-3.1c0.1-1.1,0.3-3.1,1.4-3.7c1-0.6,2.6,0.3,3.4,0.6
				c1,0.3,1.9,0.9,2.4,1.9C127.7,96.3,128.1,96.5,127.8,97.5z M136.4,107.9c-1.1,1.9-2,3.3-3.9,2.1c-0.7-0.4-2-1.6-2.3-2.3
				c-0.4-1.1-1.1-2.9-0.6-4c0.6-0.9,2.4-1,3.3-1.1c1-0.3,2-0.1,3,0.4c0.9,0.6,1.3,0.4,1.6,1.4C137.7,105.5,137,106.9,136.4,107.9z"
				/>
		</g>
	</g>
</g>
</svg>
