<?xml version="1.0" encoding="utf-8"?>
<!-- Generator: Adobe Illustrator 21.1.0, SVG Export Plug-In . SVG Version: 6.00 Build 0)  -->
<svg version="1.1" id="圖層_1" xmlns="http://www.w3.org/2000/svg" xmlns:xlink="http://www.w3.org/1999/xlink" x="0px" y="0px"
	 viewBox="0 0 31.2 31.3" style="enable-background:new 0 0 31.2 31.3;" xml:space="preserve">
<style type="text/css">
	.st0{fill:#036EB6;}
</style>
<g>
	<g>
		<g>
			<g>
				<path class="st0" d="M22.1,3.9c0.5,0.7,0.8,1.5,0.9,2.4c0,0.2,0,0.4,0,0.5h1.2C23.8,5.7,23.1,4.7,22.1,3.9z"/>
				<path class="st0" d="M17.4,1.5h-5.2H1.5l1.4,1.4h10.8h5.2c1.2,0,2.4,0.4,3.3,1.1C21,2.5,19.3,1.5,17.4,1.5z"/>
				<path class="st0" d="M22.9,23.6c-0.3,2.8-2.8,4.9-5.6,4.9h-5.2H6.8c-1.1,0-2.1-0.4-3-0.9c0.9,1.4,2.5,2.4,4.3,2.4h5.3h5.2
					c2.8,0,5.3-2.1,5.6-4.9c0.2-2.1-0.7-3.9-2.4-5C22.7,20.9,23.1,22.2,22.9,23.6z"/>
				<path class="st0" d="M7.1,13.8c0.4,1.2,1.1,2.1,2.1,2.8c-0.5-0.7-0.8-1.5-0.9-2.4c0-0.2,0-0.4,0-0.5l0,0
					C7.8,13.6,7.5,13.7,7.1,13.8z"/>
				<path class="st0" d="M13.9,19H19c1.1,0,2.2,0.4,3.1,0.9c-1-1.4-2.6-2.4-4.4-2.4h-5.2c-1.2,0-2.3-0.4-3.3-1.1
					C10.2,18,12,19,13.9,19z"/>
				<path class="st0" d="M28.3,6.8h-4.2H23h-5.3h-5.3c-3,0-5.3,2.4-5.3,5.3h1.5c0.6-2.3,2.7-4,5.2-4H19h3.8h1.5h5.3L28.3,6.8z"/>
				<path class="st0" d="M22.8,8.3c-0.6,2.3-2.7,4-5.2,4h-5.3H8.5H6.8l0,0c-3,0-5.3,2.4-5.3,5.3l0.1,5.6c0,1.8,0.9,3.3,2.3,4.2
					c-0.5-0.8-0.9-1.8-0.9-2.9L2.9,19c0-2.5,1.7-4.7,4.2-5.2c0.4-0.1,0.7-0.1,1.2-0.1l0,0h5.3h5.3c3,0,5.3-2.4,5.3-5.3L22.8,8.3
					L22.8,8.3z"/>
			</g>
		</g>
	</g>
</g>
</svg>
