<?xml version="1.0" encoding="utf-8"?>
<!-- Generator: Adobe Illustrator 21.1.0, SVG Export Plug-In . SVG Version: 6.00 Build 0)  -->
<svg version="1.1" id="圖層_1" xmlns="http://www.w3.org/2000/svg" xmlns:xlink="http://www.w3.org/1999/xlink" x="0px" y="0px"
	 viewBox="0 0 200 200" style="enable-background:new 0 0 200 200;" xml:space="preserve">
<style type="text/css">
	.st0{display:none;}
	.st1{display:inline;fill:#188BAA;}
	.st2{fill:none;stroke:#FFFFFF;stroke-width:3;stroke-linecap:round;stroke-linejoin:round;stroke-miterlimit:10;}
	.st3{fill:#FFFFFF;}
	.st4{fill:none;stroke:#FFFFFF;stroke-linecap:round;stroke-linejoin:round;stroke-miterlimit:10;}
	.st5{fill:none;stroke:#FFFFFF;stroke-width:2;stroke-linecap:round;stroke-linejoin:round;stroke-miterlimit:10;}
	.st6{fill:none;stroke:#FFFFFF;stroke-width:3;stroke-miterlimit:10;}
	.st7{fill:none;stroke:#FFFFFF;stroke-width:3;stroke-linecap:round;stroke-miterlimit:10;}
	.st8{display:inline;fill:none;stroke:#FFFFFF;stroke-width:3;stroke-linecap:round;stroke-linejoin:round;stroke-miterlimit:10;}
	.st9{display:inline;fill:#FFFFFF;}
	.st10{display:inline;fill:none;stroke:#FFFFFF;stroke-linecap:round;stroke-linejoin:round;stroke-miterlimit:10;}
	.st11{display:inline;fill:none;stroke:#FFFFFF;stroke-width:2;stroke-linecap:round;stroke-linejoin:round;stroke-miterlimit:10;}
	.st12{display:inline;fill:none;stroke:#FFFFFF;stroke-width:6;stroke-linecap:round;stroke-linejoin:round;stroke-miterlimit:10;}
	
		.st13{display:inline;opacity:0.69;fill:none;stroke:#FFFFFF;stroke-width:7;stroke-linecap:round;stroke-linejoin:round;stroke-miterlimit:10;enable-background:new    ;}
	.st14{display:inline;}
	
		.st15{display:inline;fill:none;stroke:#FFFFFF;stroke-width:0.75;stroke-linecap:round;stroke-linejoin:round;stroke-miterlimit:10;}
	.st16{fill:none;stroke:#FFFFFF;stroke-width:0.75;stroke-linecap:round;stroke-linejoin:round;stroke-miterlimit:10;}
	.st17{display:inline;fill:none;stroke:#0D7996;stroke-width:3;stroke-linecap:round;stroke-linejoin:round;stroke-miterlimit:10;}
	.st18{display:inline;fill:#0D7996;}
	.st19{display:inline;fill:none;stroke:#0D7996;stroke-linecap:round;stroke-linejoin:round;stroke-miterlimit:10;}
	.st20{fill:#0D7996;}
</style>
<g id="圖層_2" class="st0">
	<rect x="-2.7" y="-16" class="st1" width="207.3" height="239.3"/>
</g>
<g id="圖層_1_1_">
	<path class="st2" d="M43.8,134.6c0-4.5-1.4-10.1-1.4-10.1c-2.6,2.7-5,5.8-5.3,8.6"/>
	<path class="st2" d="M24.1,136.6"/>
	<path class="st2" d="M31.6,134.1c3.6-0.8,9.4-1.2,16,2.1c9.5,4.7,16.2,14.2,15.2,27.1C62,176.1,58.9,191.6,63,203H9
		c-2.4-18.1,2.9-45.2,5.9-53.5c2.7-7.7,7-11.3,8.7-12.4"/>
	<path class="st2" d="M31.6,134.1"/>
	<path class="st2" d="M29.2,134.7"/>
	<path class="st2" d="M23.6,137c-0.9-3.4,1.3-10.3,1.3-10.3s4.9,3.8,6.7,7.2"/>
	<path class="st3" d="M41.7,144.7c-0.7-0.2-3-1.1-1.4-1.9c1.7-0.7,2.4-0.6,2.6-0.6c0.3,0,0.8,0.7-0.1,2.1L41.7,144.7z"/>
	<path class="st4" d="M42.1,143.8l0.3,2.3c0,0-0.3,1-1.5,1.2"/>
	<path class="st4" d="M42.4,145.9c0,0,0.6,0.7,2,0.7"/>
	<circle class="st3" cx="34.8" cy="144.3" r="1.2"/>
	<circle class="st3" cx="46.9" cy="142.2" r="1"/>
	<path class="st2" d="M71.8,203.4c-2.4-18.1,2.3-38.2,5.2-46.5c3.3-9.4,8.6-12.6,8.6-12.6c-0.4-4.4,5.4-12.3,5.4-12.3
		c0.8,3.2,2.5,6.6,3.2,9.8c0,0,6.8-2.6,15.6,1.8c9.5,4.7,16.2,14.2,15.2,27.1c-0.9,12.9-4.1,26.1,0.1,37.5L71.8,203.4z"/>
	<path class="st2" d="M101,140.6l6,0.7v-9.3C107,131.9,101,134.7,101,140.6z"/>
	<path class="st3" d="M103.7,152.2c-0.7-0.2-2.8-1.1-1-1.9c1.7-0.7,2.4-0.6,2.6-0.6c0.3,0,1,0.6,0,2.1L103.7,152.2z"/>
	<path class="st4" d="M104.3,151.6l0.3,2.3c0,0-0.3,1.4-2,1.7"/>
	<path class="st4" d="M104.7,153.9c0,0,0.3,0.8,2.3,0.8"/>
	<circle class="st3" cx="97" cy="151.6" r="1.2"/>
	<circle class="st3" cx="109.1" cy="149.6" r="1"/>
	<path class="st2" d="M198.3,202.1c2.4-18.1-2.3-38.2-5.2-46.5c-3.3-9.4-9.5-13-9.5-13c1-5-2.7-11.5-2.7-11.5
		c-1.1,2.2-4.2,5.9-5.2,9.8c0,0-6-3.3-15.5,1.4c-9.5,4.7-16.2,14.2-15.2,27.1c0.9,12.9,4.1,26.1-0.1,37.5L198.3,202.1z"/>
	<path class="st2" d="M169.2,139.3l-7.1,1.9l-1-9.3C161.1,131.9,168.8,136.6,169.2,139.3z"/>
	<path class="st3" d="M166.5,150.8c0.7-0.2,2.8-1.1,1-1.9c-1.7-0.7-2.4-0.6-2.6-0.6c-0.3,0-1,0.6,0,2.1L166.5,150.8z"/>
	<path class="st4" d="M165.8,150l-0.3,2.3c0,0,0.5,1,2.5,1.4"/>
	<path class="st4" d="M165.5,152.3c0,0-0.7,0.8-2.3,0.7"/>
	<circle class="st3" cx="173.2" cy="150.4" r="1.2"/>
	<circle class="st3" cx="161.1" cy="148.3" r="1"/>
	<g>
		<path class="st5" d="M89.1,54.8c-1.2-2-1.8-4.4-1.8-6.9c0-7.7,6.2-13.9,13.9-13.9S115,40.2,115,47.9c0,2.5-0.7,4.9-1.9,6.9"/>
		<path class="st5" d="M113.4,54.2c-3.2,4.9-5.9,15.1-5.9,15.1H94.3c0,0-3.5-12.1-5.5-15.1"/>
	</g>
	<path class="st6" d="M70.8,92.2"/>
	<path class="st2" d="M124,96.1"/>
	<g>
		<path class="st2" d="M102.3,97.4c-7.2,0-14-1-20.4-2.8"/>
		<path class="st2" d="M124,94.1c-3.1,1-6.4,1.7-9.8,2.3"/>
		<path class="st2" d="M70.8,90.2c-16.6-8.3-27.5-22.9-27.5-39.5C43.2,24.9,69.7,4,102.3,4s59.1,20.9,59.1,46.7
			c0,16.2-10.4,30.5-26.3,38.8"/>
		<path class="st6" d="M70.8,90.1c-0.1,7.2-1.4,21.3-7.1,25.1S78.9,111,82,94.5"/>
		<path class="st7" d="M102.3,97.4c0.7,7,0.7,16.3-2.3,18.8s12.2-9.7,13.1-19.6"/>
		<path class="st2" d="M123.7,94.2c0.9,9.2,7.9,17.3,13.3,19.9c0,0-5.1-14.1-1.9-24.6"/>
	</g>
	<line class="st2" x1="95.5" y1="74.1" x2="106.8" y2="74.1"/>
	<line class="st2" x1="98" y1="80.2" x2="104.3" y2="80.2"/>
	<line class="st2" x1="73.4" y1="47.9" x2="83.1" y2="47.9"/>
	<line class="st2" x1="81.7" y1="28.2" x2="88.4" y2="35"/>
	<line class="st2" x1="101.3" y1="20.2" x2="101.2" y2="29.8"/>
	<line class="st2" x1="120.9" y1="28.5" x2="114" y2="35.2"/>
	<line class="st2" x1="128.8" y1="48.5" x2="119.2" y2="48.3"/>
	<path class="st3" d="M101,49.3c-0.6-0.3-1.8-1.4-0.6-1.8c1.6-0.5,2.1-0.1,2.3,0c0.7,0.3,0.8,0.8-0.6,1.9L101,49.3z"/>
	<path class="st4" d="M101.6,48.4l-0.1,2c0,0-0.5,1.1-2,1.1"/>
	<path class="st4" d="M101.6,50.5c0,0,0.2,0.7,1.8,1.1"/>
	<ellipse transform="matrix(0.2073 -0.9783 0.9783 0.2073 28.9463 131.0829)" class="st3" cx="95.4" cy="47.7" rx="1.1" ry="1.1"/>
	<ellipse transform="matrix(0.2073 -0.9783 0.9783 0.2073 38.3774 142.7334)" class="st3" cx="107.3" cy="47.7" rx="1.1" ry="1.1"/>
</g>
<g id="圖層_3" class="st0">
	<path class="st8" d="M81.8,195.1c-0.7,4.6-1.6,8.6-2.8,12l90.6-4.3c6.5-34-1.1-90.4-6.2-104.7c-5.7-16-14.7-21.1-14.7-21.1
		c1.2-7.4-3.2-14-3.2-14c-4.5,4.2-5.9,6.5-7.4,9.6c0,0-14.4-5.3-30.6,2.8s-27.6,24.3-25.9,46.2c0.4,5.9,0.9,12.7,1.4,21"/>
	<path class="st8" d="M124.7,70l-10.2,1.2l0.8-11.9C115.3,59.3,123.8,63,124.7,70z"/>
	<path class="st9" d="M118,90c1.2-0.3,4.8-2,1.8-3.2s-4-0.9-4.4-0.9c-0.5,0.1-1.7,1-0.1,3.7L118,90z"/>
	<path class="st10" d="M116.8,88.6l-0.6,3.9c0,0,0.7,1.8,4.2,2.4"/>
	<path class="st10" d="M116.2,92.5c0,0-1.1,1.3-3.9,1.2"/>
	<circle class="st9" cx="129.3" cy="89.2" r="2.1"/>
	<circle class="st9" cx="108.7" cy="85.7" r="1.8"/>
	<circle class="st11" cx="107.5" cy="83.9" r="6"/>
	<circle class="st11" cx="128.2" cy="87.5" r="6"/>
	<path class="st11" d="M113.5,83.9c3-1.1,7.5-0.4,8.9,1.8"/>
	<path class="st11" d="M134.2,87.5c2.5,1,4.5,0.9,6-0.4S154.8,76,154.8,76s5.5-0.1,5.8,5.4"/>
	<line class="st11" x1="84.2" y1="192" x2="119.2" y2="175.9"/>
	<line class="st10" x1="83.5" y1="194.4" x2="118.5" y2="178.3"/>
	<line class="st10" x1="83.5" y1="195.1" x2="118.5" y2="179"/>
	<line class="st10" x1="83.5" y1="197.6" x2="118.5" y2="181.5"/>
	<line class="st10" x1="83.5" y1="199.2" x2="118.5" y2="183.2"/>
	<path class="st11" d="M30.8,163c9.2-1.5,18.4-11.8,28.5,4.3c0,0,9.8-5.6,16.2,5.9s8.6,17.1,8.8,18.8"/>
	<path class="st10" d="M30,166.1c9.2-1.5,18.4-11.8,28.5,4.3c0,0,9.8-5.6,16.2,5.9c6.4,11.5,8.6,17.1,8.8,18.8"/>
	<path class="st10" d="M30,168.6c9.2-1.5,18.4-11.8,28.5,4.3c0,0,9.8-5.6,16.2,5.9c6.4,11.5,8.6,17.1,8.8,18.8"/>
	<path class="st10" d="M30,170.3c9.2-1.5,18.4-11.8,28.5,4.3c0,0,9.8-5.6,16.2,5.9c6.4,11.5,8.6,17.1,8.8,18.8"/>
	<path class="st11" d="M119.2,175.9c-0.2-1.7-2.4-7.3-8.8-18.8s-16.2-5.9-16.2-5.9c-9-13.9-23.6-6.6-28.5-4.3L30.8,163"/>
	<line class="st11" x1="59.2" y1="167.3" x2="94.3" y2="151.2"/>
	
		<image style="display:inline;overflow:visible;enable-background:new    ;" width="35" height="35" xlink:href="AFFFEE3CADA821D5.png"  transform="matrix(1 0 0 1 88 406)">
	</image>
</g>
<g id="圖層_4" class="st0">
	<path class="st8" d="M38.6,125.5c11.8-18.3-1.6-44-1.6-44c-4.4,10-4.6,32.8-3.4,43.3"/>
	<path class="st8" d="M19.3,128.4"/>
	<path class="st8" d="M25.9,126.2c4.2-0.9,12.4-1.8,20.2,2.1c11.2,5.6,19,16.7,17.9,31.8s-4.8,33.4,0.1,46.8H0.7
		c-2.8-21.2,3.4-53.1,6.9-63c3.2-9.1,9.1-13.8,11.1-15.2"/>
	<path class="st8" d="M25.9,126.2"/>
	<path class="st8" d="M23.1,127"/>
	<path class="st8" d="M19.3,128.4c-1.4-3.1-3.3-8.2-5.7-10.6c-2.7-2.7-8.3-9.6-9.4-14.8S2.9,90.1,2.9,90.1S14.2,97.6,19,106
		c2.4,4.2,6.2,10.7,6.9,20.2"/>
	<path class="st9" d="M39.1,138.5c-0.8-0.2-3.6-1.4-1.6-2.2s2.7-0.6,3-0.6s0.9,0.7-0.2,2.6L39.1,138.5z"/>
	<path class="st10" d="M39.6,137.4l0.4,2.7c0,0-0.3,1.2-1.7,1.5"/>
	<path class="st10" d="M40,139.7c0,0,0.7,0.7,2.4,0.8"/>
	<path class="st8" d="M135.9,180.9c-1.3,11.4-2.4,21.9,1.3,32l-62.6-5.6c-2.8-21.2,2.6-44.9,6.1-54.7c3.9-11,11.7-15.6,11.7-15.6
		C81.3,116.4,98,89.6,98,89.6c3.9,11.2,2.2,35.7,0,46.9c0,0,10-5,21.2,0.6c10,5,17.3,14.1,17.9,26.8"/>
	<path class="st8" d="M108.8,133.5l4.4,0.6c0,0,3.9-9.5,7.5-13.2c2.7-2.7,8.3-9.6,9.4-14.8c1-5.2,1.3-12.8,1.3-12.8
		s-11.3,7.5-16.1,15.9C112.7,113.9,108.8,122.4,108.8,133.5z"/>
	<path class="st9" d="M111.9,147.2c-0.8-0.2-3.3-1.4-1.3-2.2s2.7-0.6,3-0.6s1.2,0.7,0.1,2.5L111.9,147.2z"/>
	<path class="st10" d="M112.7,146.6l0.4,2.7c0,0-0.4,1.6-2.4,2"/>
	<path class="st10" d="M113.2,149.3c0,0,0.4,0.9,2.6,1"/>
	<path class="st11" d="M118.9,22.9c-0.8-7.1-0.9-25.3,17.7-10s30.1,36.6,29.2,57.9l-11.3,6.4C154.5,77.2,123.8,66.8,118.9,22.9z"/>
	<path class="st11" d="M129.6,55.5c0,0-2.8,10.5-3.4,13.8s0.6,7.1,5.9,10.5c5.4,3.4,19.9,11.6,19.9,11.6s-12.2-15.3-9.7-21.5"/>
	<path class="st11" d="M159.3,38.8c0,0,10.4,3.1,13.6,4.3c3.2,1.2,5.8,4.2,5.9,10.5s-0.4,23-0.4,23s-6.8-18.3-13.4-19.4"/>
	<ellipse transform="matrix(0.8708 -0.4916 0.4916 0.8708 0.4935 72.2784)" class="st12" cx="137.8" cy="35.2" rx="6.6" ry="6.6"/>
	<line class="st13" x1="162.3" y1="87.9" x2="174" y2="108.6"/>
	<line class="st13" x1="170.2" y1="83.5" x2="181.9" y2="104.2"/>
	<line class="st13" x1="163.3" y1="109.4" x2="164.8" y2="112.1"/>
	<line class="st13" x1="188" y1="95.5" x2="189.4" y2="98.2"/>
	<g class="st14">
		
			<rect x="111.9" y="179.1" transform="matrix(0.847 -0.5316 0.5316 0.847 -77.5722 95.0893)" class="st5" width="29" height="6.4"/>
		
			<rect x="122.5" y="170.1" transform="matrix(0.847 -0.5316 0.5316 0.847 -71.8336 93.5151)" class="st5" width="8.1" height="2.9"/>
		<polygon class="st5" points="141.3,161.7 116.8,177.1 112.4,187.7 136.9,172.3 		"/>
		<polygon class="st5" points="141.3,161.5 136.9,171.9 140.3,177.3 144.7,166.9 		"/>
		<line class="st5" x1="140.8" y1="169.4" x2="156.9" y2="155.8"/>
		<circle class="st3" cx="156.9" cy="155.8" r="3"/>
		<path class="st5" d="M153.9,151.3c0.9-0.6,1.9-0.9,3-0.9c3,0,5.4,2.4,5.4,5.4c0,0.4,0,0.7-0.1,1.1"/>
		<path class="st5" d="M151.5,148.7c1.5-1.2,3.4-1.9,5.5-1.9c4.9,0,8.9,4,8.9,8.9c0,0.9-0.1,1.8-0.4,2.6"/>
		<ellipse transform="matrix(0.847 -0.5316 0.5316 0.847 -71.0817 92.5998)" class="st3" cx="125.3" cy="169.8" rx="4.6" ry="2"/>
		<ellipse transform="matrix(0.847 -0.5316 0.5316 0.847 -72.5165 94.2618)" class="st3" cx="127.5" cy="173.1" rx="4.9" ry="2.1"/>
	</g>
	
		<ellipse transform="matrix(0.1852 -0.9827 0.9827 0.1852 -58.1088 220.7488)" class="st11" cx="104.1" cy="145.4" rx="4.7" ry="4.7"/>
	<line class="st11" x1="103" y1="140.8" x2="107.5" y2="148.6"/>
	<line class="st15" x1="101.5" y1="142.3" x2="105.6" y2="149.2"/>
	
		<ellipse transform="matrix(0.1852 -0.9827 0.9827 0.1852 -41.8473 234.0214)" class="st11" cx="120.2" cy="142.2" rx="4.7" ry="4.7"/>
	<line class="st11" x1="119.1" y1="137.7" x2="123.7" y2="145.5"/>
	<line class="st15" x1="117.6" y1="139.2" x2="121.7" y2="146.1"/>
	<path class="st11" d="M99.7,147.2c-4.7,1.8-12.4-0.1-14.4-3.1"/>
	<g class="st14">
		
			<ellipse transform="matrix(0.1852 -0.9827 0.9827 0.1852 -109.3985 142.5058)" class="st5" cx="31.2" cy="137.2" rx="4.7" ry="4.7"/>
		<line class="st5" x1="30.2" y1="132.7" x2="34.7" y2="140.4"/>
		<line class="st16" x1="28.7" y1="134.1" x2="32.8" y2="141.1"/>
		
			<ellipse transform="matrix(0.1852 -0.9827 0.9827 0.1852 -93.1369 155.7784)" class="st5" cx="47.4" cy="134.1" rx="4.7" ry="4.7"/>
		<line class="st5" x1="46.3" y1="129.6" x2="50.9" y2="137.3"/>
		<line class="st16" x1="44.8" y1="131" x2="48.9" y2="138"/>
		<path class="st5" d="M26.8,139c-4.7,1.8-12.4-0.1-14.4-3.1"/>
	</g>
	<path class="st11" d="M108.7,144.3"/>
</g>
<g id="圖層_5" class="st0">
	<path class="st17" d="M119.4,78.8c0.3-7.3-0.5-15.4-0.5-15.4c-5.1,1.8-11.9,6.3-14,13.5"/>
	<path class="st17" d="M77.5,83.9"/>
	<path class="st17" d="M93.3,78.3c6.4-1.4,17.9-2.8,29.9,3.3c17.2,8.6,29.2,25.8,27.5,48.9s-6.5,57.9,1.1,78.5H54.3
		c-4.3-32.6,4.3-88.2,9.7-103.4c3.4-10.7,8.6-17.1,12.5-21"/>
	<path class="st17" d="M93.3,78.3"/>
	<path class="st17" d="M89,79.4"/>
	<path class="st17" d="M76.5,84.6c-0.7-10,5.3-19,5.3-19s8.2,7.2,11.5,12.6"/>
	<path class="st18" d="M112.5,97.1c-1.3-0.3-5.6-2.1-2.4-3.4c3.1-1.3,4.2-1,4.7-0.9s1.4,1.1-0.2,4L112.5,97.1z"/>
	<path class="st19" d="M113.2,95.4l0.6,4.1c0,0-0.5,1.8-2.6,2.2"/>
	<path class="st19" d="M113.7,99c0,0,1.1,1.1,3.7,1.2"/>
	<circle class="st18" cx="100" cy="96.2" r="2.2"/>
	<circle class="st18" cx="121.9" cy="92.5" r="1.9"/>
	<path class="st17" d="M69.2,165.5c6.8-4.8,31.7-19.8,34.2-26.9s9.3-12.6,10.1,0c0.8,12.6-20.5,29.9-28.4,34.1"/>
	<g class="st14">
		<g>
			<path class="st20" d="M128.7,117.7c-1.1-2-2.6-3.6-4.3-4.9c-0.3,1.4-1.1,2.6-2.3,3.3c-0.5,0.3-1,0.4-1.5,0.5
				c-0.2,1.1-0.9,2.1-2,2.8c-2,1.1-4.6,0.4-5.7-1.6c-0.2-0.3-0.3-0.6-0.4-0.9c-0.3,0.2-0.6,0.4-0.9,0.6c-3.1,1.8-7.1,0.6-8.8-2.5
				c0,0,0,0,0-0.1c-4.4,5-5.5,12.4-2,18.5c0.9,1.6,2.1,3.1,3.4,4.2c2.6-7,9.2-12,10,0.4c0.1,1.2,0,2.4-0.3,3.6c3,0.2,6-0.5,8.7-2
				C130.3,135.2,133.1,125.4,128.7,117.7z M109,130.3c-0.2,0.7-1.1,1.4-1.8,1.7c-1.3,0.7-2.3,1.3-3.1,0c-0.3-0.6-0.7-1.6-0.6-2.2
				c0.1-0.8,0.2-2.2,1-2.6c0.7-0.4,1.8,0.2,2.4,0.4c0.7,0.2,1.3,0.6,1.7,1.3C109,129.5,109.2,129.6,109,130.3z M120.2,125.9
				c-0.2,0.7-1.1,1.4-1.8,1.7c-1.3,0.7-2.3,1.3-3.1,0c-0.3-0.6-0.7-1.6-0.6-2.2c0.1-0.8,0.2-2.2,1-2.6c0.7-0.4,1.8,0.2,2.4,0.4
				c0.7,0.2,1.3,0.6,1.7,1.3C120.1,125.1,120.4,125.2,120.2,125.9z M126.2,133.2c-0.8,1.3-1.4,2.3-2.7,1.5c-0.5-0.3-1.4-1.1-1.6-1.6
				c-0.3-0.8-0.8-2-0.4-2.8c0.4-0.6,1.7-0.7,2.3-0.8c0.7-0.2,1.4-0.1,2.1,0.3c0.6,0.4,0.9,0.3,1.1,1
				C127.1,131.5,126.6,132.5,126.2,133.2z"/>
		</g>
	</g>
</g>
</svg>
