<svg xmlns="http://www.w3.org/2000/svg" xmlns:xlink="http://www.w3.org/1999/xlink" viewBox="0 0 170.08 170.08"><defs><style>.cls-1{isolation:isolate;}.cls-2{fill:url(#未命名漸層_73);}.cls-3{fill:url(#未命名漸層_73-2);}.cls-4{fill:url(#未命名漸層_64);}.cls-5{fill:url(#未命名漸層_59);}.cls-6{fill:url(#未命名漸層_73-3);}.cls-7{mix-blend-mode:color;}.cls-8{fill:#744698;}</style><linearGradient id="未命名漸層_73" x1="4.85" y1="86.86" x2="60.77" y2="86.86" gradientUnits="userSpaceOnUse"><stop offset="0" stop-color="#4694d1"/><stop offset="0.18" stop-color="#3b82c5"/><stop offset="0.44" stop-color="#2f6fb7"/><stop offset="0.71" stop-color="#2864b0"/><stop offset="1" stop-color="#2660ad"/></linearGradient><linearGradient id="未命名漸層_73-2" x1="81.73" y1="96.47" x2="161.95" y2="96.47" xlink:href="#未命名漸層_73"/><linearGradient id="未命名漸層_64" x1="172.21" y1="55.62" x2="57.92" y2="62.23" gradientUnits="userSpaceOnUse"><stop offset="0" stop-color="#5185c5"/><stop offset="0.01" stop-color="#5184c4"/><stop offset="0.2" stop-color="#4962a9"/><stop offset="0.39" stop-color="#434793"/><stop offset="0.58" stop-color="#3f3484"/><stop offset="0.79" stop-color="#3d297b"/><stop offset="1" stop-color="#3c2578"/></linearGradient><radialGradient id="未命名漸層_59" cx="69.4" cy="89.82" r="32.7" gradientUnits="userSpaceOnUse"><stop offset="0" stop-color="#5185c5"/><stop offset="0.29" stop-color="#4671b2"/><stop offset="1" stop-color="#2d4486"/></radialGradient><linearGradient id="未命名漸層_73-3" x1="77.51" y1="55.03" x2="140.24" y2="55.03" xlink:href="#未命名漸層_73"/></defs><title>888工作區域 2</title><g class="cls-1"><g id="圖層_1" data-name="圖層 1"><path class="cls-2" d="M5.73,93.51S-4.12,61.14,42,61.94c-16.59.61-28.55,23.5-15.93,35.16C31,101.65,38.66,100.76,44.57,99a29.26,29.26,0,0,0,8.5-3.94c.28-.2,5-4.12,4.74-4.36,0,0,9.85,8.45-6.34,17.59s-34.48-2.11-38.7-4.92S5.73,93.51,5.73,93.51Z"/><path class="cls-3" d="M81.73,83.66S107.06,110.4,138,100.54c0,0,19.71-5.63,23.93-22.51-.1-.22,0,26.74-29,36.88L90.17,103.36Z"/><path class="cls-4" d="M63.4,49.79l0,0a1.26,1.26,0,0,0,.32-.29A64.09,64.09,0,0,1,88.41,32.05a55.64,55.64,0,0,1,27.1-3.28c17.74,2.31,29.83,11.74,35.18,22.52a29.69,29.69,0,0,1,0,26.74c-4.22,8.44-7,11.26-16.89,18.29A30.55,30.55,0,0,0,162,78c9.85-21.11-2.82-46.45-33.78-54.89C112.88,19,96,20.19,81.71,27.3A47.09,47.09,0,0,0,69.37,36c-3.14,3.14-6.65,7.57-7.14,12.14a2.09,2.09,0,0,0,.14,1.24A.87.87,0,0,0,63.4,49.79Z"/><path class="cls-5" d="M26.84,90.69a27.66,27.66,0,0,1-1.41-7.42c-.37-7.09,1.94-17.21,16.89-20.72A21.68,21.68,0,0,1,63.43,71a28.28,28.28,0,0,0-2.07,6,32.8,32.8,0,0,0-.74,6.67S66.25,64,77.51,54.1c0,0,21.11-12.66,33.77-4.22,0,0-16.18-2.11-28.85,34.48,0,0,22.52,29.55,56.3,28.15,0,0-33.07,20.4-67.55-12.67,0,0-23.23,31.67-52.08,11.26A40.87,40.87,0,0,1,5.73,93.51,30.93,30.93,0,0,0,18.4,104.77a29.17,29.17,0,0,0,31-4.23,33.54,33.54,0,0,0,6.33-7.74s3.44-5-3.51-10.55S35.29,76.62,26.84,90.69Z"/><path class="cls-6" d="M77.51,54.1c1.47-.93,2.75-2.61,4.1-3.74A69.66,69.66,0,0,1,92.7,42.74c10.32-5.66,22.6-8.17,33.66-3a24.78,24.78,0,0,1,13.16,15c1.53,5.12.8,13.49-3.78,17.1-4.11,3.24-5.64.12-6.48-3.68a23.94,23.94,0,0,0-2.63-6.83c-3.35-5.76-9.09-9.44-15.35-11.39C93,44.25,77.52,54.09,77.51,54.1Z"/><g class="cls-7"><path class="cls-8" d="M138,100.54c-28,8.9-51.31-12-55.59-16.18,12.67-36.59,28.85-34.48,28.85-34.48,6.26,1.95,12,5.63,15.35,11.39a23.94,23.94,0,0,1,2.63,6.83c.84,3.8,2.37,6.92,6.48,3.68,4.58-3.61,5.31-12,3.78-17.1a24.78,24.78,0,0,0-13.16-15c-11.06-5.16-23.34-2.65-33.66,3a69.66,69.66,0,0,0-11.09,7.62c-1.35,1.13-2.63,2.81-4.1,3.74,0,0,.87-.55,2.43-1.31-1.53.77-2.43,1.31-2.43,1.31C66.25,64,60.62,83.66,60.62,83.66A32.8,32.8,0,0,1,61.36,77a28.28,28.28,0,0,1,2.07-6,21.68,21.68,0,0,0-21.11-8.44C27.37,66.06,25.06,76.18,25.43,83.27a27.66,27.66,0,0,0,1.41,7.42c8.45-14.07,18.3-14.07,25.34-8.44S55.69,92.8,55.69,92.8l-.06.1c-1.18,1-2.42,2-2.56,2.15A29.26,29.26,0,0,1,44.57,99C38.66,100.76,31,101.65,26.1,97.1,13.48,85.44,25.44,62.55,42,61.94c-46.15-.8-36.3,31.57-36.3,31.57l0,.09A40.88,40.88,0,0,0,19.1,111.1C48,131.51,71.18,99.84,71.18,99.84c34.48,33.07,67.55,12.67,67.55,12.67h-.08A41.2,41.2,0,0,0,162,78C157.73,94.91,138,100.54,138,100.54Z"/><path class="cls-8" d="M128.17,23.14C112.88,19,96,20.19,81.71,27.3A47.09,47.09,0,0,0,69.37,36c-3.14,3.14-6.65,7.57-7.14,12.14a2.09,2.09,0,0,0,.14,1.24.87.87,0,0,0,1,.44l0,0a1.26,1.26,0,0,0,.32-.29A64.09,64.09,0,0,1,88.41,32.05a55.64,55.64,0,0,1,27.1-3.28c17.74,2.31,29.83,11.74,35.18,22.52a29.69,29.69,0,0,1,0,26.74c-4.22,8.44-7,11.26-16.89,18.29A30.55,30.55,0,0,0,162,78C171.8,56.92,159.13,31.58,128.17,23.14Z"/></g></g></g></svg>