<svg id="圖層_1" data-name="圖層 1" xmlns="http://www.w3.org/2000/svg" xmlns:xlink="http://www.w3.org/1999/xlink" viewBox="0 0 62.36 62.36"><defs><style>.cls-1,.cls-3,.cls-6{fill:none;}.cls-2{fill:#e0d2fc;}.cls-3,.cls-6,.cls-7{stroke:#000;}.cls-3{stroke-linecap:round;stroke-linejoin:round;}.cls-3,.cls-7{stroke-width:1.5px;}.cls-4{fill:#d83954;}.cls-5{clip-path:url(#clip-path);}.cls-6,.cls-7{stroke-miterlimit:10;}.cls-6{stroke-width:1.2px;}.cls-7{fill:#8348bc;}</style><clipPath id="clip-path"><path class="cls-1" d="M23.29,31.18a16.08,16.08,0,0,1,1.45-6.65,12.08,12.08,0,1,0,3.6,18.32A16,16,0,0,1,23.29,31.18Z"/></clipPath></defs><path class="cls-2" d="M31.18,61.61A30.43,30.43,0,1,1,61.61,31.18,30.46,30.46,0,0,1,31.18,61.61Z"/><path d="M31.18,1.5A29.68,29.68,0,1,1,1.5,31.18,29.71,29.71,0,0,1,31.18,1.5m0-1.5A31.18,31.18,0,1,0,62.36,31.18,31.18,31.18,0,0,0,31.18,0Z"/><path d="M39.36,16.61A14.57,14.57,0,1,1,24.79,31.18,14.58,14.58,0,0,1,39.36,16.61m0-1.5A16.07,16.07,0,1,0,55.42,31.18,16.07,16.07,0,0,0,39.36,15.11Z"/><line class="cls-3" x1="39.36" y1="16.58" x2="39.36" y2="19.12"/><line class="cls-3" x1="39.36" y1="43.24" x2="39.36" y2="45.78"/><line class="cls-3" x1="53.95" y1="31.18" x2="51.42" y2="31.18"/><line class="cls-3" x1="27.29" y1="31.18" x2="24.76" y2="31.18"/><line class="cls-3" x1="49.68" y1="41.5" x2="47.89" y2="39.71"/><line class="cls-4" x1="49.68" y1="41.5" x2="47.89" y2="39.71"/><line class="cls-3" x1="30.83" y1="22.65" x2="29.03" y2="20.86"/><line class="cls-4" x1="30.83" y1="22.65" x2="29.03" y2="20.86"/><line class="cls-3" x1="29.03" y1="41.5" x2="30.83" y2="39.71"/><line class="cls-4" x1="29.03" y1="41.5" x2="30.83" y2="39.71"/><line class="cls-3" x1="47.89" y1="22.65" x2="49.68" y2="20.86"/><line class="cls-4" x1="47.89" y1="22.65" x2="49.68" y2="20.86"/><g class="cls-5"><path d="M19,24.59A10.58,10.58,0,1,1,8.44,35.17,10.6,10.6,0,0,1,19,24.59m0-1.5A12.08,12.08,0,1,0,31.1,35.17,12.08,12.08,0,0,0,19,23.09Z"/><line class="cls-3" x1="19.02" y1="24.2" x2="19.02" y2="26.1"/><line class="cls-3" x1="19.02" y1="44.24" x2="19.02" y2="46.14"/><line class="cls-3" x1="29.99" y1="35.17" x2="28.08" y2="35.17"/><line class="cls-3" x1="9.95" y1="35.17" x2="8.04" y2="35.17"/><line class="cls-3" x1="26.78" y1="42.93" x2="25.43" y2="41.58"/><line class="cls-4" x1="26.78" y1="42.93" x2="25.43" y2="41.58"/><line class="cls-3" x1="12.61" y1="28.76" x2="11.26" y2="27.41"/><line class="cls-4" x1="12.61" y1="28.76" x2="11.26" y2="27.41"/><line class="cls-3" x1="11.26" y1="42.93" x2="12.61" y2="41.58"/><line class="cls-4" x1="11.26" y1="42.93" x2="12.61" y2="41.58"/><line class="cls-3" x1="25.43" y1="28.76" x2="26.78" y2="27.41"/><line class="cls-4" x1="25.43" y1="28.76" x2="26.78" y2="27.41"/><path class="cls-6" d="M19.41,32.21a.39.39,0,0,0-.74,0s-.83,2.37-.83,2.62a1.18,1.18,0,1,0,2.36,0C20.2,34.59,19.41,32.21,19.41,32.21Z"/></g><path class="cls-7" d="M43.41,29.15a.52.52,0,0,0-.69-.7s-3,1.45-3.25,1.69a1.58,1.58,0,0,0,0,2.22,1.56,1.56,0,0,0,2.22,0C41.92,32.13,43.41,29.15,43.41,29.15Z"/></svg>