<svg id="圖層_1" data-name="圖層 1" xmlns="http://www.w3.org/2000/svg" viewBox="0 0 62.36 62.36"><defs><style>.cls-1{fill:#e0d2fc;}.cls-2{fill:none;}.cls-2,.cls-3{stroke:#000;stroke-miterlimit:10;stroke-width:1.5px;}.cls-3{fill:#8348bc;}</style></defs><path class="cls-1" d="M31.18,61.61A30.43,30.43,0,1,1,61.61,31.18,30.46,30.46,0,0,1,31.18,61.61Z"/><path d="M31.18,1.5A29.68,29.68,0,1,1,1.5,31.18,29.71,29.71,0,0,1,31.18,1.5m0-1.5A31.18,31.18,0,1,0,62.36,31.18,31.18,31.18,0,0,0,31.18,0Z"/><path class="cls-2" d="M47.87,16.55A28.52,28.52,0,0,1,33,11.39a2.78,2.78,0,0,0-1.81-.5,2.78,2.78,0,0,0-1.81.5,28.52,28.52,0,0,1-14.88,5.16,2.78,2.78,0,0,0-2.64,2.87c.83,26,12.82,33.08,18.71,34a3.16,3.16,0,0,0,.61,0h0a3.16,3.16,0,0,0,.61,0c5.89-1,17.88-8.07,18.71-34A2.78,2.78,0,0,0,47.87,16.55Z"/><path class="cls-2" d="M44.18,19.78a22.14,22.14,0,0,1-11.59-4,2.13,2.13,0,0,0-1.41-.39,2.13,2.13,0,0,0-1.41.39,22.14,22.14,0,0,1-11.59,4A2.18,2.18,0,0,0,16.12,22c.65,20.22,10,26.21,14.58,27a2.5,2.5,0,0,0,.47,0h0a2.5,2.5,0,0,0,.47,0c4.59-.74,13.93-6.73,14.58-26.95A2.17,2.17,0,0,0,44.18,19.78Z"/><circle class="cls-3" cx="31.04" cy="37.24" r="2.82"/><path class="cls-2" d="M32.23,32.06h2.93a1,1,0,0,0,1-1v-.57a1,1,0,0,0-1-1H32.23"/><path class="cls-2" d="M31,34.42a2.76,2.76,0,0,1,1.18.27,1,1,0,0,0,.08-.38v-8a1,1,0,0,0-1-1h-.57a1,1,0,0,0-1,1v8a1,1,0,0,0,.07.38A2.8,2.8,0,0,1,31,34.42Z"/></svg>