<svg id="圖層_1" data-name="圖層 1" xmlns="http://www.w3.org/2000/svg" viewBox="0 0 62.36 62.36"><defs><style>.cls-1{fill:#e0d2fc;}.cls-2{fill:#8348bc;}.cls-3{fill:none;stroke:#000;stroke-miterlimit:10;stroke-width:1.5px;}</style></defs><path class="cls-1" d="M31.18,61.61A30.43,30.43,0,1,1,61.61,31.18,30.46,30.46,0,0,1,31.18,61.61Z"/><path d="M31.18,1.5A29.68,29.68,0,1,1,1.5,31.18,29.71,29.71,0,0,1,31.18,1.5m0-1.5A31.18,31.18,0,1,0,62.36,31.18,31.18,31.18,0,0,0,31.18,0Z"/><path d="M22.7,29.71h17a10.73,10.73,0,0,1,11.1,10.7c0,6.38-4.23,11-10.06,11a8.91,8.91,0,0,1-4.88-1.72A8.71,8.71,0,0,0,31.18,48a8.92,8.92,0,0,0-4.93,1.78,8,8,0,0,1-4.59,1.64c-5.83,0-10.06-4.63-10.06-11a10.92,10.92,0,0,1,11.1-10.7m0-1.5a12.44,12.44,0,0,0-12.6,12.2c0,6.91,4.65,12.51,11.56,12.51,4.55,0,6-3.42,9.52-3.42,3.14,0,5,3.42,9.52,3.42,6.91,0,11.56-5.6,11.56-12.51a12.23,12.23,0,0,0-12.6-12.2Z"/><path d="M21.42,35.7h.11a.72.72,0,0,1,.51.73v1.64a1.65,1.65,0,0,0,1.65,1.65h1.64a.7.7,0,0,1,.72.5.61.61,0,0,1-.14.52.61.61,0,0,1-.47.22H23.69A1.65,1.65,0,0,0,22,42.62v1.75a.62.62,0,0,1-.62.62H21.3a.71.71,0,0,1-.51-.72V42.62A1.65,1.65,0,0,0,19.14,41H17.39a.61.61,0,0,1-.47-.22.61.61,0,0,1-.14-.52.72.72,0,0,1,.73-.5h1.63a1.65,1.65,0,0,0,1.65-1.65V36.33a.65.65,0,0,1,.63-.63m0-1.5a2.13,2.13,0,0,0-2.13,2.13v1.75a.15.15,0,0,1-.15.15H17.51A2.2,2.2,0,0,0,15.3,40a2.13,2.13,0,0,0,2.09,2.48h1.75a.15.15,0,0,1,.15.15v1.64a2.21,2.21,0,0,0,1.77,2.2l.36,0a2.12,2.12,0,0,0,2.12-2.12V42.62a.15.15,0,0,1,.15-.15h1.75A2.12,2.12,0,0,0,27.53,40a2.2,2.2,0,0,0-2.2-1.76H23.69a.15.15,0,0,1-.15-.15V36.44a2.2,2.2,0,0,0-1.77-2.21l-.35,0Z"/><path class="cls-2" d="M40.47,38.13a1.59,1.59,0,1,1,1.59-1.59A1.59,1.59,0,0,1,40.47,38.13Z"/><path d="M40.47,35.7a.84.84,0,1,1-.84.84.85.85,0,0,1,.84-.84m0-1.5a2.34,2.34,0,1,0,2.34,2.34,2.34,2.34,0,0,0-2.34-2.34Z"/><path d="M40.47,43.35a.84.84,0,0,1,.84.83.84.84,0,1,1-1.68,0,.84.84,0,0,1,.84-.83m0-1.5a2.34,2.34,0,1,0,2.34,2.33,2.33,2.33,0,0,0-2.34-2.33Z"/><path d="M44.26,39.52a.84.84,0,1,1-.84.84.85.85,0,0,1,.84-.84m0-1.5a2.34,2.34,0,1,0,2.34,2.34A2.34,2.34,0,0,0,44.26,38Z"/><circle class="cls-2" cx="36.68" cy="40.36" r="1.59"/><path d="M36.68,39.52a.84.84,0,1,1-.84.84.85.85,0,0,1,.84-.84m0-1.5A2.34,2.34,0,1,0,39,40.36,2.34,2.34,0,0,0,36.68,38Z"/><rect class="cls-3" x="26.87" y="25.75" width="8.63" height="3.07" rx="1.29"/><path class="cls-3" d="M30.89,26.08V24.34h0A2.32,2.32,0,0,0,28.57,22H22.16a2.49,2.49,0,0,1-2.49-2.5h0a2.46,2.46,0,0,1,2.49-2.45H39.68a2.5,2.5,0,0,0,2.49-2.49h0a2.5,2.5,0,0,0-2.49-2.5H33.59a2.84,2.84,0,0,1-2.84-2.83V6.35"/></svg>