<svg id="圖層_1" data-name="圖層 1" xmlns="http://www.w3.org/2000/svg" viewBox="0 0 512 512"><defs><style>.cls-1{fill:#fff;}</style></defs><title>888工作區域 1</title><path d="M256,0C114.6,0,0,114.6,0,256S114.6,512,256,512,512,397.4,512,256,397.4,0,256,0Z"/><path class="cls-1" d="M256,260.92,437.92,138.64a19.79,19.79,0,0,0-17-9.66H91.08A19.85,19.85,0,0,0,72.83,141C101.37,159.4,204.49,225.91,256,260.92Z"/><polygon class="cls-1" points="338.1 262.08 440.76 329.09 440.76 192.23 338.1 262.08"/><polygon class="cls-1" points="71.24 192.23 71.24 329.09 173.91 262.08 71.24 192.23"/><path class="cls-1" d="M430.84,379l-135-88.15-27,18.38a22.77,22.77,0,0,1-25.62,0l-27-18.41L80.08,379.69a19.76,19.76,0,0,0,11,3.33H420.92a19.78,19.78,0,0,0,9.7-2.54Z"/></svg>